REM MD5 6f17f3fc97329220d47b77cc90572d2d
FILE "D (Europe) (Disc 3).bin" BINARY
  TRACK 01 MODE2/2352
    INDEX 01 00:00:00
  TRACK 02 AUDIO
    INDEX 00 40:40:25
    INDEX 01 40:42:25
  TRACK 03 AUDIO
    INDEX 00 43:52:26
    INDEX 01 43:54:26
REM LEADOUT 46:54:51
